PathFileType	4	(X/Y/Z)	C:/Users/beibeiliu/ov580/test_trc/User2\sequence.7_training_dense_right.trc
DataRate	CameraRate	NumFrames	NumMarkers	Units	OrigDataRate	OrigDataStartFrame	OrigNumFrames
120	120	18	19	mm	120	29	113
Frame#	Time	ThumbCMC			ThumbMCP			ThumbIP			ThumbTip			IndexMCP			IndexPIP			IndexTip			MiddleMCP			MiddlePIP			MiddleTip			RingMCP			RingPIP			RingTip			PinkyMCP			PinkyPIP			PinkyTip			BackHand1			BackHand2			BackHand3	
		X0	Y0	Z0	X1	Y1	Z1	X2	Y2	Z2	X3	Y3	Z3	X4	Y4	Z4	X5	Y5	Z5	X6	Y6	Z6	X7	Y7	Z7	X8	Y8	Z8	X9	Y9	Z9	X10	Y10	Z10	X11	Y11	Z11	X12	Y12	Z12	X13	Y13	Z13	X14	Y14	Z14	X15	Y15	Z15	X16	Y16	Z16	X17	Y17	Z17	X18	Y18	Z18	
28	0.233333	50.022	82.9502	16.7221	32.7351	112.585	11.3663	7.44493	131.348	4.50028	-22.4766	124.468	-2.73817	10.4189	66.1068	-55.9048	-12.8407	72.2537	-74.8527	-44.0893	89.7519	-59.8843	-3.18756	39.2722	-56.4037	-33.7919	45.1568	-73.6587	-62.2593	66.7473	-52.4716	-15.2465	22.1739	-42.9122	-43.2507	27.2132	-56.431	-64.7686	49.7541	-40.4672	-27.4051	8.62439	-14.3656	-59.4059	13.586	-22.5728	-76.1726	35.9709	-10.6222	22.5285	18.9629	-3.51804	46.5748	9.46483	18.9851	48.7409	46.3868	-5.5243	
29	0.241667	66.3539	76.9642	12.5788	59.8008	110.652	5.69222	38.9721	140.032	-7.01934	6.90874	134.184	-11.6427	16.361	67.499	-58.0848	-2.14077	79.3671	-76.9938	-23.8407	103.989	-64.9015	-2.85047	45.6296	-56.3986	-32.6192	60.3429	-71.9505	-48.0472	93.5652	-55.444	-17.2448	35.6419	-37.7025	-43.6507	49.8246	-54.4577	-56.1402	80.3988	-40.8909	-30.7394	30.3633	-9.52742	-62.5531	43.9497	-17.2595	-71.3563	70.2856	-7.98842	17.349	25.2146	-2.51937	39.2771	9.72518	20.4268	54.7813	42.7377	-3.96608	
30	0.25	80.911	69.896	2.78293	82.6834	102.589	-7.27653	68.2456	131.201	-18.3	39.7711	137.093	-22.7058	33.5925	65.7628	-63.9142	11.4626	79.7181	-83.5434	-0.794095	108.774	-74.3531	5.0705	48.6154	-59.6962	-21.0011	67.6316	-79.4573	-29.9058	102.405	-64.7769	-12.7906	43.2038	-43.1278	-32.9381	61.1235	-60.9274	-41.7972	96.0322	-47.8551	-25.8755	46.0819	-14.481	-50.4719	65.2897	-24.8724	-54.1744	93.1582	-19.4922	19.0315	28.9778	-2.79665	37.1189	14.3925	18.4392	58.8328	35.013	-7.63599	
31	0.258333	91.0224	58.2267	-2.35032	96.0135	92.1068	-17.0537	86.9249	120.317	-30.1519	57.1111	130.977	-37.1459	43.0722	54.0568	-68.3854	28.1949	72.387	-94.6381	17.9179	103.856	-83.239	14.4308	40.9197	-67.8832	-8.02379	61.1615	-88.4779	-10.3853	101.805	-78.9935	-2.97557	41.1601	-51.9759	-22.7883	59.2656	-69.1545	-23.1479	92.424	-65.8853	-18.3141	46.3705	-20.4616	-38.9191	66.6734	-34.6084	-36.5754	97.9204	-34.3392	26.0823	27.001	-9.54715	43.3713	8.82751	14.9705	61.7726	25.9916	-11.4636	
32	0.266667	103.803	46.4522	-5.85331	108.427	80.2021	-24.6362	101.268	109.154	-42.9225	70.3285	117.209	-49.6412	57.7612	38.9717	-75.4091	46.1421	58.2537	-105.385	37.9126	87.2771	-96.8244	30.0416	28.6472	-73.1019	10.6818	48.0846	-101.356	3.35402	85.9418	-90.8637	10.182	28.4149	-58.7854	-6.78695	44.1014	-81.5832	-10.3369	80.9703	-77.4667	-4.87317	36.1788	-31.3593	-29.564	54.9408	-46.3307	-22.389	88.5023	-48.921	33.3127	14.7019	-13.9796	45.111	2.10679	11.6381	69.6258	15.3724	-18.3935	
33	0.275	110.152	34.5658	-11.8578	118.682	64.5847	-28.2994	110.847	92.5014	-49.7878	79.6767	100.342	-64.3865	72.5647	19.5832	-86.9588	59.5813	32.8861	-112.984	47.0945	64.987	-106.665	40.5961	8.59126	-78.8905	23.7527	24.1636	-110.224	18.017	62.0004	-105.511	19.9584	8.18708	-69.4582	4.28729	22.4892	-91.4164	0.0916917	56.2406	-90.2106	4.24982	16.3345	-42.7858	-17.4126	32.6665	-60.9433	-16.3106	67.8339	-64.9007	45.3437	-1.80178	-21.3309	57.0849	-10.8625	4.00478	85.5135	1.83428	-20.4285	
34	0.283333	116.884	23.0728	-19.8456	124.936	52.4777	-40.2756	114.673	73.9793	-59.7774	85.9866	80.9915	-77.481	81.1011	-1.28021	-89.7904	72.3683	11.6489	-122.135	59.853	41.0365	-118.166	58.3578	-14.1074	-91.2138	39.0309	-2.0856	-117.856	30.661	38.871	-113.238	36.6344	-13.4115	-76.2134	19.2086	-3.88865	-99.0797	16.1305	35.1429	-103.246	17.0881	-5.11279	-51.7542	-5.18603	7.67363	-72.3067	-4.23635	37.9909	-80.6162	55.672	-16.0451	-24.5058	69.1322	-23.6371	3.08968	94.7295	-11.9676	-26.9921	
35	0.291667	125.895	14.7774	-20.9296	130.249	43.286	-48.2845	121.954	64.8573	-71.8944	92.6065	62.7653	-83.8567	100.627	-18.9522	-96.9356	86.1338	-12.6608	-122.777	74.2907	19.9157	-126.145	73.235	-35.1203	-95.0934	54.586	-24.2358	-124.114	42.2078	13.5978	-120.548	50.6003	-34.1363	-78.7755	37.289	-24.9997	-109.298	27.3832	11.0585	-111.278	31.3214	-27.3562	-60.4187	12.2917	-20.0135	-80.7911	7.35476	11.315	-91.2703	72.7201	-31.236	-31.1522	81.6714	-34.9552	1.87006	105.69	-24.4396	-27.8584	
36	0.3	132.411	15.7015	-25.8842	133.589	42.1772	-47.1637	122.313	59.6933	-80.791	96.2899	54.1084	-93.0009	115.25	-28.0519	-94.5911	107.921	-22.9607	-125.999	87.0613	4.32212	-127.704	96.9504	-44.8312	-95.9699	78.0887	-40.45	-125.126	63.6778	-0.919779	-127.416	72.8496	-47.6241	-81.4042	58.0031	-42.8704	-112.33	47.796	-9.30466	-117.405	48.7696	-41.5028	-59.8228	27.117	-39.5844	-90.4028	23.6044	-15.6926	-102.031	86.1456	-36.593	-32.2331	94.813	-38.9804	-3.98089	120.177	-25.4314	-24.4467	
37	0.308333	129.049	27.1414	-18.2974	126.891	54.5246	-44.3092	114.332	67.7954	-79.6168	92.0292	53.7907	-95.2872	134.828	-17.8583	-90.091	128.37	-18.9366	-121.662	104.936	8.48376	-128.591	121.357	-42.707	-92.623	105.126	-41.9021	-125.206	80.6931	-8.81995	-125.791	99.5175	-51.9529	-81.0131	87.7061	-50.0259	-114.538	71.6581	-21.5915	-121.395	70.911	-53.768	-65.1389	55.0071	-54.786	-96.1871	45.8377	-27.7538	-108.726	102.68	-38.7047	-29.9672	105.611	-39.2718	-1.73359	130.792	-16.8261	-25.6858	
38	0.316667	117.691	41.3231	-12.111	107.421	65.7551	-38.0998	94.809	76.3437	-72.8392	79.9429	61.0709	-91.8257	147.69	5.4112	-87.6854	142.926	9.02135	-118.683	109.869	22.1009	-122.603	140.796	-23.3653	-87.9637	133.477	-20.8652	-123.425	98.1374	1.82382	-125.978	126.339	-38.3524	-84.2705	118.178	-41.6899	-112.892	91.7551	-16.7174	-121.665	97.9165	-49.6707	-67.6844	87.647	-56.6902	-97.995	70.6752	-33.3166	-111.06	115.871	-28.2491	-29.4413	118.24	-27.5307	-0.67989	135.865	-0.503699	-19.2812	
39	0.325	97.6013	54.4255	-5.73099	81.536	70.9158	-34.9415	68.0576	76.2127	-65.4088	60.5425	61.6459	-86.0698	141.703	39.1374	-74.4158	144.382	44.165	-108.769	108.697	43.5026	-119.188	151.944	12.4017	-83.792	142.569	10.2843	-120.348	102.623	14.9458	-121.297	142.555	-14.8496	-81.7033	136.886	-12.764	-111.902	102.029	-1.94652	-118.518	121.659	-32.371	-69.8284	114.559	-40.0269	-102.708	86.8024	-24.8335	-111.52	125.807	-15.1479	-28.1393	123.072	-16.5899	4.56141	131.698	21.8215	-13.4996	
40	0.333333	76.1971	56.2183	-2.31833	54.217	66.6519	-25.8094	38.9764	72.0197	-57.2433	43.445	56.4634	-81.8619	126.276	65.9703	-64.8521	128.963	71.3982	-98.3091	96.0203	57.9263	-113.558	145.654	41.0715	-73.4024	143.207	45.4476	-108.612	104.125	33.4113	-119.023	144.829	14.6712	-71.5967	144.054	19.5228	-104.426	110.873	13.6989	-116.014	135.608	-12.9988	-65.4448	133.085	-15.9257	-99.9445	103.265	-13.6648	-110.217	128.336	7.5403	-23.8494	127.226	1.59241	8.38234	117.898	36.0744	-6.51309	
41	0.341667	58.1151	49.9318	2.30327	32.0406	56.2338	-19.9675	21.4407	58.3667	-55.0802	30.1848	47.84	-82.1987	102.86	85.1965	-55.3119	105.209	94.638	-88.3377	83.8239	76.9727	-108.334	130.87	72.2353	-64.3584	131.738	73.1801	-100.089	101.05	49.697	-115.3	141.497	46.0283	-64.7283	141.203	52.4857	-93.4611	110.338	33.351	-110.431	139.39	13.1834	-57.4012	140.24	17.3907	-93.9845	117.121	6.74328	-107.155	125.557	25.6685	-15.4798	121.863	17.7714	10.5079	100.699	50.861	1.46765	
42	0.35	45.063	43.2809	3.54375	20.0721	42.3699	-19.1783	7.01409	44.3387	-55.1317	20.7422	39.1438	-82.9534	82.8283	93.2979	-51.8901	82.107	104.349	-79.2399	68.6883	83.664	-103.879	112.558	88.1415	-55.8883	114.757	95.3949	-88.6631	93.2848	68.7002	-113.028	123.999	67.923	-54.946	127.921	75.4193	-86.309	106.374	57.3989	-105.936	136.464	35.1444	-50.6518	143.856	41.0076	-83.2743	121.322	27.6141	-105.04	115.54	40.7651	-10.1158	115.072	30.6647	15.614	85.0147	57.4781	3.25057	
43	0.358333	31.951	39.5317	6.7705	11.8908	35.3181	-18.429	-0.263701	33.8414	-51.5959	10.979	30.0657	-77.2636	66.206	90.0979	-46.9106	60.6952	105.874	-80.7745	52.6904	84.8833	-103.272	93.1406	89.148	-50.5313	93.7893	102.93	-86.3208	81.0934	77.3226	-111.744	111.684	73.5465	-49.4115	113.741	83.4526	-83.5291	100.789	61.743	-105.308	128.331	45.4526	-46.8142	133.343	52.8834	-78.6799	118.689	37.672	-102.069	104.144	46.3583	-6.99644	105.145	37.7264	19.7715	75.2309	55.6394	8.97403	
44	0.366667	26.5677	33.2326	4.32521	3.26972	27.2223	-16.4922	-8.75541	23.1004	-49.6968	1.48209	18.7579	-77.3672	51.9948	87.9495	-50.9555	47.2637	97.8089	-80.0841	43.2974	72.7906	-106.578	80.3292	86.2141	-54.3967	83.9083	93.7931	-90.3696	69.511	67.3806	-115.096	101.721	71.0232	-53.9463	102.254	78.2829	-85.7143	90.0183	56.0333	-107.376	113.534	42.4397	-48.2844	124.088	46.974	-80.3579	107.805	35.0928	-101.955	96.098	46.3735	-10.1884	95.5939	32.9579	22.5821	62.7367	53.0437	9.53505	
45	0.375	17.4587	24.334	5.06872	-7.22189	16.8449	-18.5899	-21.3495	9.92351	-50.375	-9.78113	2.54711	-79.0649	43.3856	69.5844	-54.6986	35.1289	79.3187	-87.3909	28.7464	52.258	-111.643	68.9572	71.9304	-59.9159	70.4842	78.3276	-95.1819	60.3578	46.6772	-120.128	88.62	54.9207	-55.7056	92.178	61.4249	-90.3718	78.9152	38.4747	-112.312	108.253	30.3926	-50.2535	112.946	33.4385	-79.4457	103.473	14.4923	-105.469	83.689	35.8612	-10.7818	89.8623	28.347	22.3198	51.3265	47.7841	4.26353	
